<?xml version="1.0" encoding="utf-8"?>
<!-- Svg Vector Icons : http://www.onlinewebfonts.com/icon -->
<!DOCTYPE svg PUBLIC "-//W3C//DTD SVG 1.1//EN" "http://www.w3.org/Graphics/SVG/1.1/DTD/svg11.dtd">
<svg version="1.1" xmlns="http://www.w3.org/2000/svg" xmlns:xlink="http://www.w3.org/1999/xlink" x="0px" y="0px" viewBox="0 0 256 256" enable-background="new 0 0 256 256" xml:space="preserve">
<metadata> Svg Vector Icons : http://www.onlinewebfonts.com/icon </metadata>
<g><g><path fill="#000000" d="M48.4,135.4c3.5,3.6,9.3,3.5,12.8,0l57.7-57.6v159.1c0,5,4.1,9.1,9.1,9.1c5,0,9.1-4.1,9.1-9.1V77.2l66.4,66.8c3.5,3.6,9.3,3.6,12.8,0c3.6-3.5,3.6-9.3,0-12.8l-81.6-82c-0.9-0.9-2-1.6-3.1-2c-1.1-0.5-2.4-0.8-3.7-0.8c-3.2,0-5.9,1.8-7.5,4.2l-72.2,72C44.8,126.1,44.8,131.9,48.4,135.4z"/><path fill="#000000" d="M33.8,10h188.3c5,0,9.1,4,9.1,9.1c0,5-4.1,9.1-9.1,9.1H33.8c-5,0-9.1-4-9.1-9.1C24.8,14,28.8,10,33.8,10z"/></g></g>
</svg>